<svg width="40" height="18" viewBox="0 0 40 18" fill="none" xmlns="http://www.w3.org/2000/svg">
<path d="M21.123 0H29.6558V8.529H21.123V0ZM30.5903 0H39.123V8.529H30.5903V0ZM21.123 9.46725H29.6558V18H21.123V9.46725ZM30.5903 9.46725H39.123V18H30.5903" fill="white"/>
<path d="M1.05682 14V5.27273H4.00568C4.69034 5.27273 5.25 5.39631 5.68466 5.64347C6.12216 5.88778 6.44602 6.21875 6.65625 6.63636C6.86648 7.05398 6.97159 7.51989 6.97159 8.03409C6.97159 8.5483 6.86648 9.01562 6.65625 9.43608C6.44886 9.85653 6.12784 10.1918 5.69318 10.4418C5.25852 10.6889 4.7017 10.8125 4.02273 10.8125H1.90909V9.875H3.98864C4.45739 9.875 4.83381 9.79403 5.1179 9.6321C5.40199 9.47017 5.60795 9.25142 5.7358 8.97585C5.86648 8.69744 5.93182 8.38352 5.93182 8.03409C5.93182 7.68466 5.86648 7.37216 5.7358 7.09659C5.60795 6.82102 5.40057 6.60511 5.11364 6.44886C4.8267 6.28977 4.44602 6.21023 3.97159 6.21023H2.11364V14H1.05682ZM15.6967 8H14.6399C14.5774 7.69602 14.468 7.42898 14.3118 7.19886C14.1584 6.96875 13.9709 6.77557 13.7493 6.61932C13.5305 6.46023 13.2876 6.34091 13.0206 6.26136C12.7536 6.18182 12.4751 6.14205 12.1854 6.14205C11.657 6.14205 11.1783 6.27557 10.7493 6.54261C10.3232 6.80966 9.98366 7.20312 9.73082 7.72301C9.48082 8.2429 9.35582 8.88068 9.35582 9.63636C9.35582 10.392 9.48082 11.0298 9.73082 11.5497C9.98366 12.0696 10.3232 12.4631 10.7493 12.7301C11.1783 12.9972 11.657 13.1307 12.1854 13.1307C12.4751 13.1307 12.7536 13.0909 13.0206 13.0114C13.2876 12.9318 13.5305 12.8139 13.7493 12.6577C13.9709 12.4986 14.1584 12.304 14.3118 12.0739C14.468 11.8409 14.5774 11.5739 14.6399 11.2727H15.6967C15.6172 11.7187 15.4723 12.1179 15.2621 12.4702C15.0518 12.8224 14.7905 13.1222 14.478 13.3693C14.1655 13.6136 13.8146 13.7997 13.4254 13.9276C13.0391 14.0554 12.6257 14.1193 12.1854 14.1193C11.4411 14.1193 10.7791 13.9375 10.1996 13.5739C9.62003 13.2102 9.16406 12.6932 8.83168 12.0227C8.49929 11.3523 8.3331 10.5568 8.3331 9.63636C8.3331 8.71591 8.49929 7.92045 8.83168 7.25C9.16406 6.57955 9.62003 6.0625 10.1996 5.69886C10.7791 5.33523 11.4411 5.15341 12.1854 5.15341C12.6257 5.15341 13.0391 5.21733 13.4254 5.34517C13.8146 5.47301 14.1655 5.66051 14.478 5.90767C14.7905 6.15199 15.0518 6.45028 15.2621 6.80256C15.4723 7.15199 15.6172 7.55114 15.6967 8Z" fill="white"/>
</svg>
