<svg width="71" height="20" viewBox="0 0 71 20" fill="none" xmlns="http://www.w3.org/2000/svg">
<path d="M36.7353 4.86401C37.5854 4.86401 38.2446 5.1049 38.7129 5.58667C39.1466 6.03806 39.3635 6.63485 39.3635 7.37703C39.3635 8.11922 39.1466 8.71384 38.7129 9.16089C38.2446 9.64266 37.5854 9.88354 36.7353 9.88354H28.8705C28.5062 9.88354 28.2091 10.0224 27.9793 10.3002C27.7494 10.578 27.6345 10.9361 27.6345 11.3744V14.1999H25.6309V11.3744C25.6309 10.667 25.8434 10.0745 26.2684 9.59709C26.6977 9.124 27.2312 8.88745 27.8687 8.88745H36.0718C36.4925 8.88745 36.8177 8.74422 37.0476 8.45776C37.2558 8.19301 37.3598 7.83276 37.3598 7.37703C37.3598 6.91696 37.2558 6.55455 37.0476 6.28979C36.8177 6.00334 36.4925 5.86011 36.0718 5.86011H25.6309V4.86401H36.7353Z" fill="white"/>
<path d="M55.3989 4.86401V5.86011H50.2598C49.8347 5.86011 49.5073 6.00334 49.2775 6.28979C49.0693 6.55455 48.9652 6.91696 48.9652 7.37703V11.6934C48.9652 12.4356 48.7462 13.0302 48.3082 13.4773C47.8398 13.9591 47.1784 14.1999 46.3241 14.1999H40.5864V13.2039H45.667C46.0921 13.2039 46.4173 13.0606 46.6428 12.7742C46.8553 12.5094 46.9616 12.147 46.9616 11.6869V7.37703C46.9616 6.63485 47.1784 6.03806 47.6121 5.58667C48.0805 5.1049 48.7419 4.86401 49.5962 4.86401H55.3989Z" fill="white"/>
<path d="M70.7641 4.86401V5.86011H59.0351V9.05021H68.1359C68.986 9.05021 69.6452 9.2911 70.1135 9.77287C70.5472 10.2199 70.7641 10.8362 70.7641 11.6218C70.7641 12.4074 70.5472 13.0259 70.1135 13.4773C69.6452 13.9591 68.986 14.1999 68.1359 14.1999H57.0315V13.2039H67.4724C67.8931 13.2039 68.2183 13.0606 68.4482 12.7742C68.6564 12.5094 68.7604 12.1253 68.7604 11.6218C68.7604 11.1227 68.6564 10.7407 68.4482 10.476C68.2183 10.1895 67.8931 10.0463 67.4724 10.0463H62.2138C59.3517 10.0463 57.0315 7.72611 57.0315 4.86401V4.86401H70.7641Z" fill="white"/>
<path d="M11.4537 17.8758L11.2685 17.7957L8.54364 16.6179L8.02072 16.3919V16.1115C7.93964 16.1351 7.85002 16.1591 7.75169 16.1827C7.23783 16.3061 6.49052 16.4172 5.48749 16.4055H5.48742C4.49511 16.3937 3.48906 16.2504 2.70013 15.9131C1.92993 15.5837 1.11284 14.9378 1.13352 13.8434C1.14616 13.1738 1.58903 12.6681 1.98334 12.3375C2.40798 11.9815 2.97006 11.665 3.58483 11.3896C4.81851 10.8368 6.42567 10.3784 8.02072 10.1071V3V1.97396L9.03235 2.14533L8.88757 3C9.03235 2.14533 9.03254 2.14537 9.03274 2.1454L9.03327 2.14549L9.03473 2.14574L9.03926 2.14652L9.05466 2.1492L9.10995 2.15912C9.15735 2.16778 9.22545 2.18054 9.31153 2.19754C9.48358 2.23151 9.72805 2.28251 10.0231 2.35155C10.6112 2.48917 11.4097 2.70066 12.2403 2.99539C13.065 3.28804 13.9546 3.67434 14.7066 4.17242C15.4434 4.66035 16.1555 5.32637 16.4482 6.2188L11.4537 17.8758ZM11.4537 17.8758V17.9325L11.5286 17.9081L12.4743 18.3169L12.477 17.5986L12.5895 17.5619L12.4784 17.2216V17.2216C12.5895 17.5619 12.5895 17.5619 12.5896 17.5619L12.5899 17.5618L12.5909 17.5615L12.5946 17.5603L12.6088 17.5556L12.6637 17.5376C12.7115 17.5218 12.7816 17.4987 12.871 17.4691C13.0498 17.4098 13.3059 17.3242 13.6159 17.2191C14.2357 17.0091 15.0732 16.7201 15.9416 16.4053C16.808 16.0912 17.7143 15.7481 18.4685 15.43C18.845 15.2711 19.1932 15.1145 19.4837 14.9676C19.7559 14.8299 20.0401 14.6701 20.2428 14.4968C20.5388 14.2439 20.7169 13.8914 20.7193 13.4914C20.7215 13.1313 20.5812 12.8228 20.4359 12.5962C20.1478 12.1468 19.6677 11.7509 19.1775 11.4435C18.671 11.1259 18.0715 10.8513 17.4668 10.6818C17.0381 10.5616 16.5655 10.4828 16.1013 10.5033C16.2348 10.292 16.3566 10.0498 16.458 9.7813C16.7989 8.87802 16.9178 7.65068 16.4482 6.21886L11.4537 17.8758ZM12.9223 11.0786C12.9233 11.0793 12.9243 11.08 12.9254 11.0806C12.785 11.1252 12.6431 11.1735 12.5007 11.226L12.5025 10.7292C12.6049 10.8368 12.7434 10.9609 12.9223 11.0786ZM12.5042 10.2807V10.2805L13.0071 9.9782C12.7739 10.1184 12.6139 10.2146 12.5042 10.2807Z" fill="white" stroke="url(#paint0_linear_263_692)" stroke-width="1.73369"/>
<defs>
<linearGradient id="paint0_linear_263_692" x1="10.9262" y1="3" x2="10.9262" y2="17" gradientUnits="userSpaceOnUse">
<stop stop-color="white" stop-opacity="0.21"/>
<stop offset="1" stop-color="white" stop-opacity="0.04"/>
</linearGradient>
</defs>
</svg>
