<svg width="73" height="20" viewBox="0 0 73 20" fill="none" xmlns="http://www.w3.org/2000/svg">
<path d="M56.4078 0.0663185C54.416 0.422441 52.8135 1.89663 52.3083 3.8346C52.1261 4.53442 52.1137 4.94438 52.1344 10.3732C52.1468 15.3589 52.1509 15.4748 52.2337 15.86C52.6934 17.9346 54.1676 19.4129 56.2629 19.9015C56.5362 19.9637 56.884 19.9761 59.1243 19.9885C61.4432 20.0051 61.6834 20.0009 61.7455 19.9388C61.8076 19.8767 61.8118 19.0775 61.8118 10.0171C61.8118 3.30041 61.7994 0.136715 61.7704 0.0787411C61.729 0.0042038 61.6586 6.29425e-05 59.232 0.0042038C57.2609 0.00834465 56.6687 0.0207672 56.4078 0.0663185ZM60.1554 10.0046V18.3942L58.47 18.3735C56.9172 18.357 56.7515 18.3487 56.441 18.27C55.1076 17.9263 54.1179 16.8993 53.8404 15.5618C53.7493 15.1436 53.7493 4.84085 53.8363 4.4309C54.0848 3.26728 54.8922 2.30244 55.9813 1.86764C56.5279 1.64817 56.7805 1.62332 58.5529 1.61918L60.1554 1.61504V10.0046Z" fill="white"/>
<path d="M56.7643 4.14513C56.5035 4.19482 56.1059 4.39358 55.8947 4.57993C55.4599 4.95676 55.2446 5.49094 55.2777 6.12037C55.2943 6.4475 55.315 6.53446 55.4475 6.79949C55.6421 7.20116 55.9361 7.49517 56.3378 7.69393C56.6153 7.83059 56.6857 7.84715 57.0459 7.85957C57.3731 7.872 57.489 7.85957 57.7085 7.78504C58.6071 7.48274 59.1495 6.609 58.9963 5.71455C58.8183 4.65032 57.8079 3.93808 56.7643 4.14513Z" fill="white"/>
<path d="M63.8288 0.028986C63.8122 0.0414085 63.7998 4.53022 63.7998 10.0046C63.7998 19.036 63.8039 19.9512 63.8661 19.976C63.9779 20.0174 67.1913 20.0009 67.5888 19.9594C69.27 19.769 70.7525 18.7461 71.56 17.2264C71.6635 17.0318 71.8001 16.7047 71.8705 16.5017C72.1314 15.7232 72.1231 15.9303 72.1231 9.97972C72.1231 5.23004 72.1149 4.52193 72.0569 4.21964C71.6469 2.0622 70.003 0.434801 67.8414 0.0621147C67.5515 0.0124226 67.1043 0 65.6632 0C64.6694 0 63.8412 0.0124226 63.8288 0.028986ZM68.2513 9.04801C68.8973 9.21779 69.4274 9.71056 69.6427 10.34C69.7794 10.7292 69.7752 11.3007 69.6386 11.6568C69.386 12.3111 68.8891 12.7707 68.2513 12.9405C67.2161 13.2097 66.1146 12.5844 65.8123 11.5574C65.7212 11.2427 65.7254 10.7127 65.8289 10.3897C66.1394 9.37514 67.2161 8.77884 68.2513 9.04801Z" fill="white"/>
<path d="M5.82955 7.45455C5.77841 7.02273 5.57102 6.6875 5.20739 6.44886C4.84375 6.21023 4.39773 6.09091 3.86932 6.09091C3.48295 6.09091 3.14489 6.15341 2.85511 6.27841C2.56818 6.40341 2.34375 6.57528 2.18182 6.79403C2.02273 7.01278 1.94318 7.26136 1.94318 7.53977C1.94318 7.77273 1.99858 7.97301 2.10938 8.14062C2.22301 8.3054 2.3679 8.44318 2.54403 8.55398C2.72017 8.66193 2.90483 8.75142 3.09801 8.82244C3.29119 8.89062 3.46875 8.94602 3.63068 8.98864L4.51705 9.22727C4.74432 9.28693 4.99716 9.36932 5.27557 9.47443C5.55682 9.57955 5.82528 9.72301 6.08097 9.90483C6.33949 10.0838 6.55256 10.3139 6.72017 10.5952C6.88778 10.8764 6.97159 11.2216 6.97159 11.6307C6.97159 12.1023 6.84801 12.5284 6.60085 12.9091C6.35653 13.2898 5.99858 13.5923 5.52699 13.8168C5.05824 14.0412 4.48864 14.1534 3.81818 14.1534C3.19318 14.1534 2.65199 14.0526 2.1946 13.8509C1.74006 13.6491 1.3821 13.3679 1.12074 13.0071C0.862216 12.6463 0.715909 12.2273 0.681818 11.75H1.77273C1.80114 12.0795 1.91193 12.3523 2.10511 12.5682C2.30114 12.7812 2.5483 12.9403 2.84659 13.0455C3.14773 13.1477 3.47159 13.1989 3.81818 13.1989C4.22159 13.1989 4.58381 13.1335 4.90483 13.0028C5.22585 12.8693 5.48011 12.6847 5.66761 12.4489C5.85511 12.2102 5.94886 11.9318 5.94886 11.6136C5.94886 11.3239 5.8679 11.0881 5.70597 10.9062C5.54403 10.7244 5.33097 10.5767 5.06676 10.4631C4.80256 10.3494 4.51705 10.25 4.21023 10.1648L3.13636 9.85795C2.45455 9.66193 1.91477 9.3821 1.51705 9.01847C1.11932 8.65483 0.920455 8.17898 0.920455 7.59091C0.920455 7.10227 1.05256 6.67614 1.31676 6.3125C1.58381 5.94602 1.94176 5.66193 2.39062 5.46023C2.84233 5.25568 3.34659 5.15341 3.90341 5.15341C4.46591 5.15341 4.96591 5.25426 5.40341 5.45597C5.84091 5.65483 6.1875 5.92756 6.44318 6.27415C6.7017 6.62074 6.83807 7.0142 6.85227 7.45455H5.82955ZM10.2944 14L7.90803 5.27273H8.98189L10.8058 12.3807H10.891L12.7489 5.27273H13.9421L15.8001 12.3807H15.8853L17.7092 5.27273H18.783L16.3967 14H15.3058L13.3796 7.04545H13.3114L11.3853 14H10.2944ZM21.1566 5.27273V14H20.0998V5.27273H21.1566ZM22.7983 6.21023V5.27273H29.3438V6.21023H26.5994V14H25.5426V6.21023H22.7983ZM37.6342 8H36.5774C36.5149 7.69602 36.4055 7.42898 36.2493 7.19886C36.0959 6.96875 35.9084 6.77557 35.6868 6.61932C35.468 6.46023 35.2251 6.34091 34.9581 6.26136C34.6911 6.18182 34.4126 6.14205 34.1229 6.14205C33.5945 6.14205 33.1158 6.27557 32.6868 6.54261C32.2607 6.80966 31.9212 7.20312 31.6683 7.72301C31.4183 8.2429 31.2933 8.88068 31.2933 9.63636C31.2933 10.392 31.4183 11.0298 31.6683 11.5497C31.9212 12.0696 32.2607 12.4631 32.6868 12.7301C33.1158 12.9972 33.5945 13.1307 34.1229 13.1307C34.4126 13.1307 34.6911 13.0909 34.9581 13.0114C35.2251 12.9318 35.468 12.8139 35.6868 12.6577C35.9084 12.4986 36.0959 12.304 36.2493 12.0739C36.4055 11.8409 36.5149 11.5739 36.5774 11.2727H37.6342C37.5547 11.7187 37.4098 12.1179 37.1996 12.4702C36.9893 12.8224 36.728 13.1222 36.4155 13.3693C36.103 13.6136 35.7521 13.7997 35.3629 13.9276C34.9766 14.0554 34.5632 14.1193 34.1229 14.1193C33.3786 14.1193 32.7166 13.9375 32.1371 13.5739C31.5575 13.2102 31.1016 12.6932 30.7692 12.0227C30.4368 11.3523 30.2706 10.5568 30.2706 9.63636C30.2706 8.71591 30.4368 7.92045 30.7692 7.25C31.1016 6.57955 31.5575 6.0625 32.1371 5.69886C32.7166 5.33523 33.3786 5.15341 34.1229 5.15341C34.5632 5.15341 34.9766 5.21733 35.3629 5.34517C35.7521 5.47301 36.103 5.66051 36.4155 5.90767C36.728 6.15199 36.9893 6.45028 37.1996 6.80256C37.4098 7.15199 37.5547 7.55114 37.6342 8ZM39.342 14V5.27273H40.3988V9.15909H45.0522V5.27273H46.109V14H45.0522V10.0966H40.3988V14H39.342Z" fill="white"/>
</svg>
