<svg width="26" height="31" viewBox="0 0 26 31" fill="none" xmlns="http://www.w3.org/2000/svg">
<g filter="url(#filter0_d_102_10)">
<circle cx="13.0093" cy="20" r="3" fill="#768192"/>
<path fill-rule="evenodd" clip-rule="evenodd" d="M7.00014 5.99892C7.00014 2.44691 9.44815 -0.00109863 13.0001 -0.00109863C16.5521 -0.00109863 19.0001 2.44691 19.0001 5.99892V7.99893C19.0001 8.99893 19.1432 9.54493 19.6882 9.99893C19.7173 10.0232 19.7917 10.081 19.8723 10.1436C19.9715 10.2206 20.0799 10.3049 20.1251 10.3429C21.3741 11.3839 22.0021 12.3809 22.0001 13.9989C21.9991 15.0829 21.1041 16.002 20.0001 15.999H15.8171C15.8171 15.999 15.8173 15.9993 15.8175 16H13.0463C13.031 15.9993 13.0156 15.999 13.0001 15.999C12.9847 15.999 12.9693 15.9993 12.954 16H10.1908C10.191 15.9993 10.1911 15.999 10.1911 15.999H6.00014C4.89314 16.01 4.00814 15.0769 4.00014 13.9989C3.98914 12.3689 4.61014 11.3889 5.87514 10.3429C5.91779 10.3078 6.01435 10.2255 6.1041 10.1491C6.1806 10.0838 6.25216 10.0229 6.28115 9.99893C6.83815 9.53893 7.00014 8.99893 7.00014 7.99893V5.99892Z" fill="white"/>
</g>
<defs>
<filter id="filter0_d_102_10" x="0" y="-0.00109863" width="26.0002" height="31.0011" filterUnits="userSpaceOnUse" color-interpolation-filters="sRGB">
<feFlood flood-opacity="0" result="BackgroundImageFix"/>
<feColorMatrix in="SourceAlpha" type="matrix" values="0 0 0 0 0 0 0 0 0 0 0 0 0 0 0 0 0 0 127 0" result="hardAlpha"/>
<feOffset dy="4"/>
<feGaussianBlur stdDeviation="2"/>
<feComposite in2="hardAlpha" operator="out"/>
<feColorMatrix type="matrix" values="0 0 0 0 0 0 0 0 0 0 0 0 0 0 0 0 0 0 0.25 0"/>
<feBlend mode="normal" in2="BackgroundImageFix" result="effect1_dropShadow_102_10"/>
<feBlend mode="normal" in="SourceGraphic" in2="effect1_dropShadow_102_10" result="shape"/>
</filter>
</defs>
</svg>
