<svg width="26" height="31" viewBox="0 0 26 31" fill="none" xmlns="http://www.w3.org/2000/svg">
<g filter="url(#filter0_d_539_1125)">
<path d="M13.0093 23.0011C14.6662 23.0011 16.0093 21.658 16.0093 20.0011C16.0093 18.3442 14.6662 17.0011 13.0093 17.0011C11.3524 17.0011 10.0093 18.3442 10.0093 20.0011C10.0093 21.658 11.3524 23.0011 13.0093 23.0011Z" fill="#768192"/>
<path fill-rule="evenodd" clip-rule="evenodd" d="M7.00014 6.00002C7.00014 2.44801 9.44815 0 13.0001 0C16.5521 0 19.0001 2.44801 19.0001 6.00002V8.00003C19.0001 9.00003 19.1432 9.54603 19.6882 10C19.7173 10.0243 19.7917 10.0821 19.8723 10.1447C19.9715 10.2217 20.0799 10.306 20.1251 10.344C21.3741 11.385 22.0021 12.382 22.0001 14C21.9991 15.084 21.1041 16.0031 20.0001 16.0001H15.8171L15.8175 16.0011H13.0463C13.031 16.0004 13.0156 16.0001 13.0001 16.0001C12.9847 16.0001 12.9693 16.0004 12.954 16.0011H10.1908L10.1911 16.0001H6.00014C4.89314 16.0111 4.00814 15.078 4.00014 14C3.98914 12.37 4.61014 11.39 5.87514 10.344C5.91779 10.3089 6.01435 10.2266 6.1041 10.1502C6.1806 10.0849 6.25216 10.024 6.28115 10C6.83815 9.54003 7.00014 9.00003 7.00014 8.00003V6.00002Z" fill="white"/>
</g>
<defs>
<filter id="filter0_d_539_1125" x="0" y="0" width="26" height="31.001" filterUnits="userSpaceOnUse" color-interpolation-filters="sRGB">
<feFlood flood-opacity="0" result="BackgroundImageFix"/>
<feColorMatrix in="SourceAlpha" type="matrix" values="0 0 0 0 0 0 0 0 0 0 0 0 0 0 0 0 0 0 127 0" result="hardAlpha"/>
<feOffset dy="4"/>
<feGaussianBlur stdDeviation="2"/>
<feComposite in2="hardAlpha" operator="out"/>
<feColorMatrix type="matrix" values="0 0 0 0 0 0 0 0 0 0 0 0 0 0 0 0 0 0 0.25 0"/>
<feBlend mode="normal" in2="BackgroundImageFix" result="effect1_dropShadow_539_1125"/>
<feBlend mode="normal" in="SourceGraphic" in2="effect1_dropShadow_539_1125" result="shape"/>
</filter>
</defs>
</svg>
