<svg width="100" height="84" viewBox="0 0 100 84" fill="none" xmlns="http://www.w3.org/2000/svg">
<path d="M49.6848 34.0083V83.9702L10.8936 67.2152L11.0786 17.434L49.6848 34.0083Z" fill="#11121B"/>
<path d="M49.6855 34.0381V84L88.2881 67.8237V17.5933L49.6855 34.0381Z" fill="#E8F0FE"/>
<path d="M49.6848 34.0082L88.4761 17.7606L49.9895 0.700562L10.8936 17.3544L49.6848 34.0082Z" fill="#11121B"/>
<path d="M0.299872 26.2669L39.3382 45.2157C39.4431 45.2667 39.5618 45.2817 39.6761 45.2586C39.7904 45.2355 39.894 45.1755 39.9709 45.0878L49.6844 34.008L10.8931 17.3542L0.212993 25.3622C0.139965 25.4169 0.0822421 25.4895 0.0453694 25.573C0.00849661 25.6565 -0.00628676 25.7481 0.00243746 25.8389C0.0111617 25.9298 0.0431 26.0169 0.0951873 26.0918C0.147274 26.1668 0.21776 26.2271 0.299872 26.2669V26.2669Z" fill="#BBC0C8"/>
<path d="M88.4758 17.7605L99.2493 27.5007C99.3151 27.5601 99.365 27.6349 99.3945 27.7185C99.4239 27.8021 99.4321 27.8917 99.4182 27.9792C99.4043 28.0667 99.3688 28.1494 99.3148 28.2197C99.2609 28.29 99.1903 28.3457 99.1093 28.3818L60.5523 45.5898C60.4494 45.6357 60.3345 45.6478 60.2242 45.6243C60.114 45.6008 60.0141 45.5428 59.9388 45.4588L49.6846 34.0082L88.4758 17.7605Z" fill="#BBC0C8"/>
<path d="M49.9893 0.700399L88.5839 17.7604L94.1343 16.474C94.2434 16.4487 94.3418 16.3896 94.4154 16.3051C94.489 16.2207 94.5341 16.1151 94.5442 16.0036C94.5544 15.892 94.5291 15.7801 94.4719 15.6837C94.4147 15.5874 94.3286 15.5115 94.2258 15.467L58.9842 0.196827C58.9072 0.163404 58.8233 0.148727 58.7395 0.154003L49.9893 0.700399Z" fill="#BBC0C8"/>
<path d="M49.9887 0.700452L11.6104 17.4338L6.75892 16.6185C6.64659 16.5976 6.54399 16.541 6.46628 16.4573C6.38857 16.3735 6.33988 16.267 6.3274 16.1534C6.31493 16.0398 6.33933 15.9252 6.397 15.8266C6.45468 15.7279 6.54256 15.6505 6.64766 15.6056L42.7602 0.042473C42.84 0.00855031 42.9269 -0.00538899 43.0134 0.00187076L49.9887 0.700452Z" fill="#BBC0C8"/>
</svg>
