<svg width="86" height="84" viewBox="0 0 86 84" fill="none" xmlns="http://www.w3.org/2000/svg">
<path d="M52.4581 41.9972L51.0984 49.2974L44.6219 84L32.9553 81.8216L40.4358 41.734L40.7915 39.8237L52.4581 41.9972Z" fill="#09080F"/>
<path d="M81.1902 24.5392L77.1674 46.1063C77.1556 46.1695 77.1315 46.2298 77.0964 46.2837C77.0613 46.3376 77.0159 46.384 76.9629 46.4204C76.9098 46.4567 76.8501 46.4823 76.7872 46.4956C76.7243 46.5088 76.6594 46.5096 76.5962 46.4977L20.0786 35.9567L26.7307 0.290405L69.648 8.29501C77.4266 9.74547 82.5932 17.0168 81.1902 24.5392Z" fill="#BBC0C8"/>
<path d="M38.8024 17.3015L34.8111 38.7013L5.14478 33.1682L9.13605 11.7685C10.6056 3.88939 18.4382 -1.25941 26.6301 0.268456C34.8221 1.79632 40.272 9.42228 38.8024 17.3015Z" fill="#F3F7FF"/>
<path d="M52.6132 27.3052C50.4271 26.8974 48.9846 24.7727 49.3963 22.5663C49.808 20.3598 51.9191 18.8975 54.1053 19.3055C54.8022 19.4364 55.452 19.7495 55.9886 20.2131C56.5251 20.6766 56.9294 21.274 57.1602 21.9444L84.7752 27.0949L84.0292 31.0949L56.4142 25.9444C55.9573 26.4867 55.3648 26.8983 54.6972 27.1373C54.0295 27.3763 53.3105 27.4342 52.6132 27.3052V27.3052Z" fill="#11121B"/>
<path d="M37.8182 17.6948L33.9294 38.5446L5.98267 33.3322L9.87169 12.4824C11.3034 4.80588 18.7204 -0.250641 26.4376 1.18872C34.1548 2.62809 39.2499 10.0182 37.8182 17.6948Z" fill="#11121B"/>
<path d="M53.3961 25.2846C54.5197 25.2846 55.4306 24.3737 55.4306 23.2501C55.4306 22.1265 54.5197 21.2156 53.3961 21.2156C52.2724 21.2156 51.3616 22.1265 51.3616 23.2501C51.3616 24.3737 52.2724 25.2846 53.3961 25.2846Z" fill="white"/>
<path d="M85.0942 27.0807L82.6548 40.1596C82.6443 40.2159 82.6119 40.2657 82.5646 40.2981C82.5174 40.3305 82.4592 40.3428 82.4029 40.3323L75.9905 39.1363C75.9794 39.1343 75.9696 39.1279 75.9632 39.1185C75.9568 39.1092 75.9543 39.0977 75.9564 39.0866L78.4276 25.8373C78.4297 25.8262 78.4361 25.8164 78.4454 25.81C78.4547 25.8036 78.4662 25.8012 78.4773 25.8032L85.0601 27.031C85.0713 27.0331 85.0811 27.0395 85.0875 27.0488C85.0939 27.0581 85.0963 27.0696 85.0942 27.0807V27.0807Z" fill="#E8F0FE"/>
<path d="M34.8397 38.7144C34.5309 39.496 28.8841 62.7797 10.611 59.3716C-9.42654 55.9792 5.06711 33.1615 5.06711 33.1615L34.8397 38.7144Z" fill="#BBC0C8"/>
<path d="M52.4581 41.9972L51.0984 49.2974L40.4358 41.734L40.7915 39.8237L52.4581 41.9972Z" fill="#F3F7FF"/>
</svg>
