<svg width="86" height="84" viewBox="0 0 86 84" fill="none" xmlns="http://www.w3.org/2000/svg">
<path d="M52.4579 41.9972L51.0982 49.2974L44.6216 84L32.9551 81.8216L40.4356 41.734L40.7913 39.8237L52.4579 41.9972Z" fill="#11121B"/>
<path d="M81.1907 24.5392L77.1679 46.1063C77.1561 46.1695 77.132 46.2298 77.0969 46.2837C77.0618 46.3376 77.0164 46.384 76.9634 46.4204C76.9103 46.4567 76.8506 46.4823 76.7877 46.4956C76.7248 46.5088 76.6599 46.5096 76.5966 46.4977L20.0791 35.9567L26.7312 0.290405L69.6484 8.29501C77.4271 9.74547 82.5937 17.0168 81.1907 24.5392Z" fill="#BBC0C8"/>
<path d="M38.8022 17.3015L34.8108 38.7013L5.14453 33.1682L9.13581 11.7685C10.6053 3.88939 18.4379 -1.25941 26.6299 0.268456C34.8219 1.79632 40.2717 9.42228 38.8022 17.3015Z" fill="#F3F7FF"/>
<path d="M52.6132 27.3052C50.4271 26.8974 48.9846 24.7727 49.3963 22.5663C49.808 20.3598 51.9191 18.8975 54.1053 19.3055C54.8022 19.4364 55.452 19.7495 55.9886 20.2131C56.5251 20.6766 56.9294 21.274 57.1602 21.9444L84.7752 27.0949L84.0292 31.0949L56.4142 25.9444C55.9573 26.4867 55.3648 26.8983 54.6972 27.1373C54.0295 27.3763 53.3105 27.4342 52.6132 27.3052V27.3052Z" fill="#11121B"/>
<path d="M37.8179 17.6948L33.9292 38.5446L5.98242 33.3322L9.87144 12.4824C11.3032 4.80588 18.7202 -0.250641 26.4374 1.18872C34.1546 2.62809 39.2497 10.0182 37.8179 17.6948Z" fill="#11121B"/>
<path d="M53.3958 25.2846C54.5194 25.2846 55.4303 24.3737 55.4303 23.2501C55.4303 22.1265 54.5194 21.2156 53.3958 21.2156C52.2722 21.2156 51.3613 22.1265 51.3613 23.2501C51.3613 24.3737 52.2722 25.2846 53.3958 25.2846Z" fill="white"/>
<path d="M85.0947 27.0807L82.6553 40.1596C82.6448 40.2159 82.6124 40.2657 82.5651 40.2981C82.5179 40.3305 82.4597 40.3428 82.4034 40.3323L75.991 39.1363C75.9799 39.1343 75.9701 39.1279 75.9637 39.1185C75.9573 39.1092 75.9548 39.0977 75.9569 39.0866L78.4281 25.8373C78.4302 25.8262 78.4366 25.8164 78.4459 25.81C78.4552 25.8036 78.4667 25.8012 78.4778 25.8032L85.0606 27.031C85.0717 27.0331 85.0816 27.0395 85.088 27.0488C85.0944 27.0581 85.0968 27.0696 85.0947 27.0807V27.0807Z" fill="#E8F0FE"/>
<path d="M34.8397 38.7144C34.5309 39.496 28.8841 62.7797 10.611 59.3716C-9.42654 55.9792 5.06711 33.1615 5.06711 33.1615L34.8397 38.7144Z" fill="#BBC0C8"/>
<path d="M52.4579 41.9972L51.0982 49.2974L40.4355 41.734L40.7912 39.8237L52.4579 41.9972Z" fill="#F3F7FF"/>
</svg>
