<svg width="19" height="20" viewBox="0 0 19 20" fill="none" xmlns="http://www.w3.org/2000/svg">
<path d="M9.19963 14.7459C8.70321 14.7463 8.22724 14.9437 7.87622 15.2947C7.5252 15.6458 7.32781 16.1217 7.32739 16.6182V20H11.0719V16.6182C11.0715 16.1217 10.8741 15.6458 10.523 15.2947C10.172 14.9437 9.69605 14.7463 9.19963 14.7459V14.7459Z" fill="white"/>
<path d="M17.2916 5.37681L10.855 0.5484C10.3766 0.192319 9.79603 0 9.19959 0C8.60316 0 8.02262 0.192319 7.54414 0.5484L1.10758 5.37681C0.764613 5.6338 0.486044 5.96695 0.293837 6.35C0.101629 6.73305 0.00103888 7.1555 0 7.58407V17.2409C0.00145825 17.9722 0.292615 18.6731 0.809729 19.1903C1.32684 19.7074 2.02778 19.9985 2.75909 20H5.75073V16.6181C5.75104 15.7035 6.11451 14.8265 6.76122 14.1798C7.40794 13.533 8.285 13.1696 9.19959 13.1693C10.114 13.1703 10.9906 13.534 11.6372 14.1806C12.2837 14.8271 12.6474 15.7037 12.6485 16.6181V20H15.6362C16.3677 19.9991 17.069 19.7082 17.5862 19.1909C18.1035 18.6737 18.3944 17.9724 18.3952 17.2409V7.58407C18.3937 7.15601 18.2933 6.73411 18.1018 6.35124C17.9104 5.96837 17.6331 5.6349 17.2916 5.37681V5.37681Z" fill="#2F323C"/>
</svg>
