<svg width="20" height="20" viewBox="0 0 20 20" fill="none" xmlns="http://www.w3.org/2000/svg">
<path d="M18.9757 19.0297C18.9042 19.1011 18.8193 19.1576 18.7259 19.1961C18.6325 19.2345 18.5324 19.2541 18.4314 19.2536C18.2258 19.2531 18.0287 19.1712 17.8832 19.0259L13 14.0925C13.3981 13.7639 13.7639 13.3981 14.0924 13L18.9795 17.9411C19.0509 18.0128 19.1073 18.0979 19.1457 18.1914C19.1842 18.2849 19.2037 18.3851 19.2034 18.4862C19.203 18.5873 19.1827 18.6874 19.1437 18.7807C19.1046 18.8739 19.0475 18.9586 18.9757 19.0297Z" fill="white"/>
<path fill-rule="evenodd" clip-rule="evenodd" d="M8.00193 2.63994e-06C6.71753 -0.00089267 5.45181 0.30776 4.31188 0.899843C3.17195 1.49193 2.19135 2.35002 1.45306 3.4015C0.714768 4.45299 0.240514 5.66693 0.0704264 6.9406C-0.0996612 8.21427 0.0394201 9.51019 0.475907 10.7187C0.912394 11.9272 1.63344 13.0127 2.57803 13.8834C3.52262 14.7542 4.66296 15.3844 5.90254 15.7209C7.14213 16.0573 8.44449 16.0901 9.69942 15.8165C10.9544 15.5428 12.1249 14.9707 13.1121 14.1486C13.4915 13.8353 13.8401 13.4865 14.1533 13.107C15.1243 11.9387 15.7424 10.5177 15.9353 9.01057C16.1282 7.50344 15.8878 5.97252 15.2423 4.59714C14.5968 3.22177 13.5729 2.05888 12.2906 1.2447C11.0083 0.430527 9.52067 -0.00123187 8.00193 2.63994e-06ZM4.77289 1.78736C5.77033 1.26929 6.87783 0.999219 8.00169 1C9.33059 0.998922 10.6323 1.37671 11.7543 2.08912C12.8763 2.80152 13.7722 3.81904 14.337 5.0225C14.9018 6.22595 15.1121 7.56551 14.9434 8.88425C14.7746 10.203 14.2337 11.4463 13.3841 12.4686C13.1101 12.8007 12.805 13.1059 12.4731 13.38C11.6093 14.0994 10.5851 14.5999 9.48699 14.8394C8.38893 15.0789 7.24937 15.0502 6.16473 14.7558C5.08009 14.4614 4.08229 13.9099 3.25578 13.148C2.42926 12.3861 1.79834 11.4363 1.41642 10.3789C1.03449 9.32141 0.912796 8.18748 1.06162 7.07302C1.21045 5.95856 1.62542 4.89636 2.27143 3.97631C2.91743 3.05626 3.77545 2.30544 4.77289 1.78736Z" fill="#353843"/>
</svg>
