<svg width="18" height="20" viewBox="0 0 18 20" fill="none" xmlns="http://www.w3.org/2000/svg">
<path d="M13.7385 0H3.76154C2.76455 0.00203262 1.80897 0.398988 1.10398 1.10397C0.398995 1.80896 0.00203999 2.76454 7.37231e-06 3.76154V17.7308C-0.00106693 18.1518 0.115291 18.5647 0.336017 18.9232C0.556744 19.2817 0.873091 19.5716 1.24949 19.7602C1.62589 19.9488 2.04743 20.0287 2.46673 19.9909C2.88604 19.953 3.28649 19.799 3.62308 19.5461L8.31539 16.0308C8.44166 15.9371 8.59471 15.8865 8.75193 15.8865C8.90915 15.8865 9.06219 15.9371 9.18846 16.0308L13.8769 19.5423C14.2132 19.7953 14.6133 19.9495 15.0324 19.9876C15.4515 20.0257 15.8728 19.9462 16.2492 19.758C16.6256 19.5699 16.942 19.2804 17.163 18.9223C17.3839 18.5642 17.5006 18.1516 17.5 17.7308V3.76154C17.498 2.76454 17.101 1.80896 16.396 1.10397C15.691 0.398988 14.7355 0.00203262 13.7385 0V0Z" fill="#2F323C"/>
</svg>
