<svg width="51" height="51" viewBox="0 0 51 51" fill="none" xmlns="http://www.w3.org/2000/svg">
<path d="M25.0662 5.50291e-05C38.9286 5.6241e-05 50.1328 11.2006 50.1328 25.0667C50.1328 38.9292 38.9321 50.1333 25.0662 50.1333C11.2037 50.1333 -0.000430082 38.9327 -0.000428869 25.0667C-0.000427658 11.2042 11.2001 5.38169e-05 25.0662 5.50291e-05Z" fill="url(#paint0_linear_263_686)"/>
<path d="M34.1328 13.1646L34.1328 36.6646C34.1328 37.2063 33.8347 37.704 33.3571 37.9595C32.8796 38.2151 32.3 38.1871 31.8494 37.8867L14.2244 26.1367C13.8158 25.8643 13.5703 25.4057 13.5703 24.9146C13.5703 24.4234 13.8157 23.9649 14.2244 23.6925L31.8494 11.9425C32.8144 11.2991 34.1328 11.9825 34.1328 13.1646Z" fill="url(#paint1_linear_263_686)"/>
<path d="M25.0662 5.50291e-05C38.9286 5.6241e-05 50.1328 11.2006 50.1328 25.0667C50.1328 38.9292 38.9321 50.1333 25.0662 50.1333C11.2037 50.1333 -0.000430082 38.9327 -0.000428869 25.0667C-0.000427658 11.2042 11.2001 5.38169e-05 25.0662 5.50291e-05Z" fill="url(#paint2_linear_263_686)"/>
<path d="M17 36.9687V13.4687C17 12.927 17.2982 12.4293 17.7757 12.1738C18.2532 11.9182 18.8328 11.9462 19.2834 12.2466L36.9084 23.9966C37.317 24.269 37.5625 24.7276 37.5625 25.2187C37.5625 25.7099 37.3171 26.1684 36.9084 26.4408L19.2834 38.1908C18.3184 38.8342 17 38.1508 17 36.9687Z" fill="url(#paint3_linear_263_686)"/>
<defs>
<linearGradient id="paint0_linear_263_686" x1="11.8775" y1="34.9143" x2="38.0547" y2="33.6687" gradientUnits="userSpaceOnUse">
<stop stop-color="#7B61FF"/>
<stop offset="1" stop-color="#AA82FF"/>
</linearGradient>
<linearGradient id="paint1_linear_263_686" x1="23.8516" y1="11.6952" x2="23.8516" y2="38.1333" gradientUnits="userSpaceOnUse">
<stop stop-color="#FFC2CC"/>
<stop offset="1" stop-color="#FFF2F4"/>
</linearGradient>
<linearGradient id="paint2_linear_263_686" x1="11.8775" y1="34.9143" x2="38.0547" y2="33.6687" gradientUnits="userSpaceOnUse">
<stop stop-color="#3B424C"/>
<stop offset="1" stop-color="#768192"/>
</linearGradient>
<linearGradient id="paint3_linear_263_686" x1="27.2812" y1="38.4381" x2="27.2812" y2="12" gradientUnits="userSpaceOnUse">
<stop stop-color="#A1A1A1"/>
<stop offset="1" stop-color="#FFF2F4"/>
</linearGradient>
</defs>
</svg>
