<svg width="366" height="538" viewBox="0 0 366 538" fill="none" xmlns="http://www.w3.org/2000/svg">
<rect width="366" height="538" fill="#11121B"/>
<path d="M144.105 307.859L140.155 308.414C138.032 308.713 136.069 307.234 135.771 305.111L124.967 228.235C124.669 226.112 126.148 224.15 128.271 223.851L204.185 213.182C206.308 212.884 208.271 214.363 208.569 216.486C208.569 216.486 209.26 221.401 209.498 223.092" stroke="#768192" stroke-width="2" stroke-linecap="round"/>
<path d="M210.305 227.566L210.79 230.594" stroke="#768192" stroke-width="2" stroke-linecap="round"/>
<path d="M161.483 232.492L237.489 240.48C239.136 240.654 240.332 242.13 240.159 243.778L232.069 320.748C231.896 322.396 230.419 323.591 228.772 323.418L152.766 315.429C151.119 315.256 149.923 313.78 150.096 312.132L158.186 235.162C158.359 233.514 159.836 232.319 161.483 232.492Z" stroke="#768192" stroke-width="2"/>
<path fill-rule="evenodd" clip-rule="evenodd" d="M168.037 282.993L177.461 276.638C179.094 275.536 181.287 275.788 182.628 277.232L189.502 284.631C189.86 285.017 190.455 285.059 190.864 284.728L205.625 272.767C207.473 271.269 210.211 271.705 211.503 273.703L221.116 288.572L222.507 290.893L221.844 298.747C221.796 299.308 221.296 299.719 220.737 299.657L165.52 293.522C164.978 293.462 164.585 292.979 164.635 292.436L165.365 284.509L168.037 282.993Z" fill="#E8F0FE"/>
<path d="M168.261 241.986L228.884 248.358C229.983 248.473 230.78 249.457 230.664 250.556L225.307 301.528C225.191 302.626 224.207 303.423 223.109 303.308L162.486 296.936C161.387 296.821 160.59 295.837 160.706 294.738L166.063 243.766C166.179 242.667 167.163 241.87 168.261 241.986Z" stroke="#768192" stroke-width="2"/>
<circle cx="179.965" cy="259.773" r="5.82234" transform="rotate(6 179.965 259.773)" fill="#F3F7FF" stroke="#768192" stroke-width="2"/>
<path d="M166.083 284.494C169.903 281.857 177.543 276.581 177.543 276.581C179.128 275.512 181.256 275.756 182.557 277.157L189.518 284.652C189.866 285.026 190.444 285.066 190.84 284.745L205.726 272.684C207.392 271.334 209.836 271.59 211.185 273.256C211.273 273.363 211.354 273.476 211.429 273.592C211.429 273.592 220.132 287.401 222.166 290.628" stroke="#768192" stroke-width="2" stroke-linecap="round"/>
</svg>
